<?xml version="1.0" standalone="no"?>
<!DOCTYPE svg PUBLIC "-//W3C//DTD SVG 20010904//EN"
 "http://www.w3.org/TR/2001/REC-SVG-20010904/DTD/svg10.dtd">
<svg version="1.0" xmlns="http://www.w3.org/2000/svg"
 width="1030.000000pt" height="1030.000000pt" viewBox="0 0 1030.000000 1030.000000"
 preserveAspectRatio="xMidYMid meet">
<metadata>
Created by potrace 1.11, written by Peter Selinger 2001-2013
</metadata>
<g transform="translate(0.000000,1030.000000) scale(0.100000,-0.100000)"
fill="#000000" stroke="none">
<path d="M1800 10293 c-275 -42 -429 -88 -631 -188 -411 -203 -732 -558 -900
-994 -27 -71 -65 -193 -75 -244 -13 -66 -27 -146 -32 -177 -9 -55 -8 -6308 1
-6375 4 -33 10 -67 12 -75 2 -8 7 -29 9 -45 22 -127 116 -365 202 -508 142
-237 378 -462 622 -594 116 -63 293 -131 412 -158 9 -2 153 -38 320 -80 168
-42 312 -78 320 -80 8 -1 296 -73 640 -160 344 -86 632 -158 640 -160 8 -2 44
-11 80 -20 36 -9 74 -18 85 -20 11 -3 101 -25 200 -51 99 -25 191 -48 205 -51
34 -7 43 -9 60 -16 8 -3 47 -13 85 -21 39 -9 77 -18 85 -20 8 -2 241 -61 518
-130 l503 -126 662 166 c364 91 669 167 677 169 222 49 2522 635 2585 658 213
80 411 206 567 360 260 257 413 550 478 917 18 101 18 219 17 3255 -2 1733 -6
3164 -10 3180 -4 17 -10 46 -13 65 -3 19 -8 46 -10 60 -18 103 -82 291 -140
415 -41 88 -153 277 -174 295 -3 3 -13 14 -21 26 -102 150 -337 361 -529 475
-152 91 -381 185 -495 205 -16 2 -38 7 -47 10 -28 8 -59 14 -158 29 -80 12
-608 14 -3410 13 -1823 0 -3326 -2 -3340 -5z"/>
</g>
</svg>
