<svg xmlns="http://www.w3.org/2000/svg" viewBox="0 0 34.85 13.63"><defs><style>.cls-1,.cls-2{fill:#fff;}.cls-2{font-size:12px;font-family:CommutersSans-Light, Commuters Sans;font-weight:300;}</style></defs><g id="Layer_2" data-name="Layer 2"><g id="Layer_1-2" data-name="Layer 1"><path class="cls-1" d="M6.72,5h0l-3.24.89-1.74.47A2.36,2.36,0,0,0,0,8.62v2a2.36,2.36,0,0,0,1.79,2.29l1.33.34a2.78,2.78,0,0,0,.57.07,2.34,2.34,0,0,0,1.56-.6A2.45,2.45,0,0,0,6,10.9V7.43a0,0,0,0,0,0,0l-1.55.42,0,0v3.09a.84.84,0,0,1-.21.57.76.76,0,0,1-.7.19l-1.33-.33a.76.76,0,0,1-.57-.74v-2a.75.75,0,0,1,.56-.73l.57-.16h0l1.2-.33.48-.13h0L6,6.84H6l1.12-.31a0,0,0,0,0,0,0V4.9s0,0,0,0Z"/><path class="cls-1" d="M6,0H1.58A1.58,1.58,0,0,0,0,1.58H0a0,0,0,0,0,0,0H4.39a0,0,0,0,1,0,0V5s0,0,0,0L6,4.62s0,0,0,0V0A0,0,0,0,0,6,0Z"/><path class="cls-1" d="M9.31,5.94V1.64a0,0,0,0,1,0,0h2a.76.76,0,0,1,.76.76v.55a.76.76,0,0,1-.56.74l-1.7.46s0,0,0,0v1.6s0,0,0,0L12,5.21a2.38,2.38,0,0,0,1.74-2.29V2.37A2.37,2.37,0,0,0,11.36,0H7.73a0,0,0,0,0,0,0V10.91a2.42,2.42,0,0,0,.72,1.77,2.35,2.35,0,0,0,2.18.58l1.33-.34a2.35,2.35,0,0,0,1.79-2.29V8.2a1.57,1.57,0,0,0-1.57-1.57h0a0,0,0,0,0,0,0v4a.77.77,0,0,1-.58.74l-1.33.33a.74.74,0,0,1-.69-.19A.78.78,0,0,1,9.31,11v-5Z"/><text class="cls-2" transform="translate(17.87 10.59)">JB</text></g></g></svg>