<svg xmlns="http://www.w3.org/2000/svg" viewBox="0 0 116.3 13.33"><defs><style>.cls-1{fill:#fff;}</style></defs><g id="Layer_2" data-name="Layer 2"><g id="Layer_1-2" data-name="Layer 1"><path class="cls-1" d="M6.72,5h0l-3.24.89-1.74.47A2.36,2.36,0,0,0,0,8.62v2a2.36,2.36,0,0,0,1.79,2.29l1.33.34a2.78,2.78,0,0,0,.57.07,2.34,2.34,0,0,0,1.56-.6A2.45,2.45,0,0,0,6,10.9V7.43a0,0,0,0,0,0,0l-1.55.42,0,0v3.09a.84.84,0,0,1-.21.57.76.76,0,0,1-.7.19l-1.33-.33a.76.76,0,0,1-.57-.74v-2a.75.75,0,0,1,.56-.73l.57-.16h0l1.2-.33.48-.13h0L6,6.84H6l1.12-.31a0,0,0,0,0,0,0V4.9s0,0,0,0Z"/><path class="cls-1" d="M6,0H1.58A1.58,1.58,0,0,0,0,1.58H0a0,0,0,0,0,0,0H4.39a0,0,0,0,1,0,0V5s0,0,0,0L6,4.62s0,0,0,0V0A0,0,0,0,0,6,0Z"/><path class="cls-1" d="M9.31,5.94V1.64a0,0,0,0,1,0,0h2a.76.76,0,0,1,.76.76v.55a.76.76,0,0,1-.56.74l-1.7.46s0,0,0,0v1.6s0,0,0,0L12,5.21a2.38,2.38,0,0,0,1.74-2.29V2.37A2.37,2.37,0,0,0,11.36,0H7.73a0,0,0,0,0,0,0V10.91a2.42,2.42,0,0,0,.72,1.77,2.35,2.35,0,0,0,2.18.58l1.33-.34a2.35,2.35,0,0,0,1.79-2.29V8.2a1.57,1.57,0,0,0-1.57-1.57h0a0,0,0,0,0,0,0v4a.77.77,0,0,1-.58.74l-1.33.33a.74.74,0,0,1-.69-.19A.78.78,0,0,1,9.31,11v-5Z"/><path class="cls-1" d="M18.37,9.93l.46-.58a2.82,2.82,0,0,0,2.24.9c1.52,0,2.25-.8,2.25-2.53v-5h.82V7.84c0,2.07-1,3.15-3.05,3.15A3.5,3.5,0,0,1,18.37,9.93Z"/><path class="cls-1" d="M32,4.88v6h-.77V9.61A3.38,3.38,0,0,1,28.49,11a2.12,2.12,0,0,1-2.33-2.32V4.88h.77V8.53a1.58,1.58,0,0,0,1.75,1.77A3.19,3.19,0,0,0,31.22,9V4.88Z"/><path class="cls-1" d="M33.57,10.09l.37-.61a4.68,4.68,0,0,0,2.79.83c1.33,0,2.11-.41,2.11-1.1s-.49-.88-2.22-1c-2-.14-2.77-.59-2.77-1.69s1.07-1.79,2.75-1.79a4.56,4.56,0,0,1,2.64.73l-.33.62a4,4,0,0,0-2.36-.68c-1.2,0-1.92.42-1.92,1.08s.49.88,2.23,1c2,.14,2.76.59,2.76,1.69S38.56,11,36.72,11A5.34,5.34,0,0,1,33.57,10.09Z"/><path class="cls-1" d="M45.65,10.62a3.24,3.24,0,0,1-1.56.37c-1.26,0-1.91-.58-1.91-1.76V5.51H40.43V4.88h1.75V2.69H43V4.88h2.53v.63H43V9.16c0,.79.38,1.14,1.2,1.14A2.53,2.53,0,0,0,45.42,10Z"/><path class="cls-1" d="M47,3.05a.58.58,0,0,1,1.15,0,.58.58,0,0,1-1.15,0Zm.19,1.83h.77v6h-.77Z"/><path class="cls-1" d="M55.88,7.06v3.79h-.77V7.18a1.57,1.57,0,0,0-1.75-1.75,3.19,3.19,0,0,0-2.54,1.33v4.09h-.77v-6h.77V6.1a3.4,3.4,0,0,1,2.73-1.37A2.13,2.13,0,0,1,55.88,7.06Z"/><path class="cls-1" d="M69.29,8.68c0,1.4-1,2.17-2.75,2.17H61.63V2.69h4.74c1.73,0,2.66.75,2.66,2.1a1.83,1.83,0,0,1-1.35,1.87A2,2,0,0,1,69.29,8.68ZM62.43,6.36h3.95c1.19,0,1.85-.52,1.85-1.5S67.59,3.4,66.32,3.4H62.43Zm6,2.26c0-1-.65-1.55-2-1.55H62.43v3.07h4C67.77,10.14,68.47,9.63,68.47,8.62Z"/><path class="cls-1" d="M70.74,7.86a3.33,3.33,0,0,1,6.64,0,3.33,3.33,0,0,1-6.64,0Zm5.85,0a2.54,2.54,0,0,0-5.07,0,2.54,2.54,0,0,0,5.07,0Z"/><path class="cls-1" d="M79.51,8.09c.1,1.38,1.16,2.21,2.83,2.21a3.57,3.57,0,0,0,2.33-.78l.31.62a4.16,4.16,0,0,1-2.69.85c-2.19,0-3.57-1.22-3.57-3.13a3.29,3.29,0,0,1,6.58,0v.23Zm0-.65h5a2.58,2.58,0,0,0-5,0Z"/><path class="cls-1" d="M92.78,7.06v3.79H92V7.18a1.57,1.57,0,0,0-1.75-1.75,3.19,3.19,0,0,0-2.54,1.33v4.09H87V2.33h.77V6.1a3.4,3.4,0,0,1,2.73-1.37A2.13,2.13,0,0,1,92.78,7.06Z"/><path class="cls-1" d="M100.61,7.06v3.79h-.76V7.18A1.57,1.57,0,0,0,98.1,5.43a3.22,3.22,0,0,0-2.55,1.33v4.09h-.76v-6h.76V6.1a3.43,3.43,0,0,1,2.74-1.37A2.12,2.12,0,0,1,100.61,7.06Z"/><path class="cls-1" d="M103,8.09c.1,1.38,1.16,2.21,2.83,2.21a3.57,3.57,0,0,0,2.33-.78l.31.62a4.16,4.16,0,0,1-2.69.85c-2.19,0-3.57-1.22-3.57-3.13a3.29,3.29,0,0,1,6.58,0v.23Zm0-.65h5a2.58,2.58,0,0,0-5,0Z"/><path class="cls-1" d="M116.3,7.06v3.79h-.77V7.18a1.57,1.57,0,0,0-1.75-1.75,3.19,3.19,0,0,0-2.54,1.33v4.09h-.77v-6h.77V6.1A3.4,3.4,0,0,1,114,4.73,2.13,2.13,0,0,1,116.3,7.06Z"/></g></g></svg>